<mxfile host="Electron" modified="2023-08-13T16:47:55.154Z" agent="Mozilla/5.0 (Macintosh; Intel Mac OS X 10_15_7) AppleWebKit/537.36 (KHTML, like Gecko) draw.io/21.6.8 Chrome/114.0.5735.289 Electron/25.5.0 Safari/537.36" etag="tS71VmCH73uJO-7ow8Rd" version="21.6.8" type="device">
  <diagram name="Page-1" id="x_3-WnSFfCKoYxhvC2lr">
    <mxGraphModel dx="660" dy="473" grid="1" gridSize="10" guides="1" tooltips="1" connect="1" arrows="1" fold="1" page="1" pageScale="1" pageWidth="850" pageHeight="1100" math="0" shadow="0">
      <root>
        <mxCell id="0" />
        <mxCell id="1" parent="0" />
        <mxCell id="z7q-0Ynauut_bhvzLPcm-33" value="" style="edgeStyle=orthogonalEdgeStyle;rounded=0;orthogonalLoop=1;jettySize=auto;html=1;startArrow=classic;startFill=1;fontSize=11;" edge="1" parent="1" source="z7q-0Ynauut_bhvzLPcm-17" target="z7q-0Ynauut_bhvzLPcm-18">
          <mxGeometry relative="1" as="geometry" />
        </mxCell>
        <mxCell id="z7q-0Ynauut_bhvzLPcm-35" value="&lt;font style=&quot;font-size: 11px;&quot;&gt;HTTP&lt;br style=&quot;font-size: 11px;&quot;&gt;- REST Requests&lt;br style=&quot;font-size: 11px;&quot;&gt;- Static Resources&lt;/font&gt;" style="edgeLabel;html=1;align=center;verticalAlign=middle;resizable=0;points=[];fontSize=11;" vertex="1" connectable="0" parent="z7q-0Ynauut_bhvzLPcm-33">
          <mxGeometry x="0.2382" relative="1" as="geometry">
            <mxPoint x="49" y="6" as="offset" />
          </mxGeometry>
        </mxCell>
        <mxCell id="z7q-0Ynauut_bhvzLPcm-45" style="edgeStyle=orthogonalEdgeStyle;rounded=0;orthogonalLoop=1;jettySize=auto;html=1;entryX=0;entryY=0.5;entryDx=0;entryDy=0;entryPerimeter=0;fontSize=11;" edge="1" parent="1" source="z7q-0Ynauut_bhvzLPcm-17" target="z7q-0Ynauut_bhvzLPcm-21">
          <mxGeometry relative="1" as="geometry" />
        </mxCell>
        <mxCell id="z7q-0Ynauut_bhvzLPcm-48" value="Register + Retrieve Microservice IP" style="edgeLabel;html=1;align=center;verticalAlign=middle;resizable=0;points=[];fontSize=11;" vertex="1" connectable="0" parent="z7q-0Ynauut_bhvzLPcm-45">
          <mxGeometry x="-0.1089" relative="1" as="geometry">
            <mxPoint x="65" y="-26" as="offset" />
          </mxGeometry>
        </mxCell>
        <mxCell id="z7q-0Ynauut_bhvzLPcm-80" style="edgeStyle=orthogonalEdgeStyle;rounded=0;orthogonalLoop=1;jettySize=auto;html=1;entryX=0.5;entryY=0;entryDx=0;entryDy=0;fontSize=11;" edge="1" parent="1" source="z7q-0Ynauut_bhvzLPcm-17" target="z7q-0Ynauut_bhvzLPcm-39">
          <mxGeometry relative="1" as="geometry" />
        </mxCell>
        <mxCell id="z7q-0Ynauut_bhvzLPcm-17" value="UI + API Gateway" style="image;sketch=0;aspect=fixed;html=1;points=[];align=center;fontSize=11;image=img/lib/mscae/CustomDomain.svg;" vertex="1" parent="1">
          <mxGeometry x="460" y="190" width="50" height="42" as="geometry" />
        </mxCell>
        <mxCell id="z7q-0Ynauut_bhvzLPcm-18" value="" style="image;sketch=0;aspect=fixed;html=1;points=[];align=center;fontSize=11;image=img/lib/mscae/VirtualMachineWindows.svg;" vertex="1" parent="1">
          <mxGeometry x="460" y="70" width="50" height="46" as="geometry" />
        </mxCell>
        <mxCell id="z7q-0Ynauut_bhvzLPcm-19" value="" style="strokeColor=#dddddd;shadow=1;strokeWidth=1;rounded=1;absoluteArcSize=1;arcSize=2;fontSize=11;" vertex="1" parent="1">
          <mxGeometry x="120" y="700" width="190" height="60" as="geometry" />
        </mxCell>
        <mxCell id="z7q-0Ynauut_bhvzLPcm-20" value="Zipkin Tracing Server" style="editableCssRules=.*;html=1;fontColor=#999999;shape=image;verticalLabelPosition=middle;labelBackgroundColor=#ffffff;verticalAlign=middle;labelPosition=right;align=left;spacingLeft=20;part=1;points=[];imageAspect=0;image=data:image/svg+xml,PHN2ZyB4bWxucz0iaHR0cDovL3d3dy53My5vcmcvMjAwMC9zdmciIHhtbG5zOnY9Imh0dHBzOi8vdmVjdGEuaW8vbmFubyIgd2lkdGg9IjIwIiBoZWlnaHQ9IjIwIiB2aWV3Qm94PSIwIDAgMjAgMjAiPiYjeGE7CTxzdHlsZSB0eXBlPSJ0ZXh0L2NzcyI+JiN4YTsJLnN0MHtmaWxsOiM0Mjg1ZjQ7fSYjeGE7CS5zdDF7ZmlsbDojNjY5ZGY2O30mI3hhOwk8L3N0eWxlPiYjeGE7CTxwYXRoIGNsYXNzPSJzdDAiIGQ9Ik0yMCA4SDEwdjRoMTB6bTAgOEgxMHY0aDEweiIgZmlsbD0iIzQyODVmNCIvPiYjeGE7CTxwYXRoIGNsYXNzPSJzdDEiIGQ9Ik0xMCAxNkg2djRoNHpNMCAwaDZ2NEgwem0wIDhoMTB2NEgweiIgZmlsbD0iIzY2OWRmNiIvPiYjeGE7PC9zdmc+;fontSize=11;" vertex="1" parent="z7q-0Ynauut_bhvzLPcm-19">
          <mxGeometry width="30" height="30" relative="1" as="geometry">
            <mxPoint x="15" y="15" as="offset" />
          </mxGeometry>
        </mxCell>
        <mxCell id="z7q-0Ynauut_bhvzLPcm-52" style="edgeStyle=orthogonalEdgeStyle;rounded=0;orthogonalLoop=1;jettySize=auto;html=1;exitX=1;exitY=0.5;exitDx=0;exitDy=0;exitPerimeter=0;fontSize=11;" edge="1" parent="1" source="z7q-0Ynauut_bhvzLPcm-21" target="z7q-0Ynauut_bhvzLPcm-27">
          <mxGeometry relative="1" as="geometry" />
        </mxCell>
        <mxCell id="z7q-0Ynauut_bhvzLPcm-55" value="Fetch Configuration" style="edgeLabel;html=1;align=center;verticalAlign=middle;resizable=0;points=[];fontSize=11;" vertex="1" connectable="0" parent="z7q-0Ynauut_bhvzLPcm-52">
          <mxGeometry x="0.252" y="-1" relative="1" as="geometry">
            <mxPoint as="offset" />
          </mxGeometry>
        </mxCell>
        <mxCell id="z7q-0Ynauut_bhvzLPcm-21" value="Eureka Discovery Server" style="outlineConnect=0;dashed=0;verticalLabelPosition=bottom;verticalAlign=top;align=center;html=1;shape=mxgraph.aws3.application_discovery_service;fillColor=#5294CF;gradientColor=none;fontSize=11;" vertex="1" parent="1">
          <mxGeometry x="640" y="280" width="76.5" height="93" as="geometry" />
        </mxCell>
        <mxCell id="z7q-0Ynauut_bhvzLPcm-42" style="edgeStyle=orthogonalEdgeStyle;rounded=0;orthogonalLoop=1;jettySize=auto;html=1;fontSize=11;" edge="1" parent="1" source="z7q-0Ynauut_bhvzLPcm-22" target="z7q-0Ynauut_bhvzLPcm-39">
          <mxGeometry relative="1" as="geometry" />
        </mxCell>
        <mxCell id="z7q-0Ynauut_bhvzLPcm-43" value="Monitoring" style="edgeLabel;html=1;align=center;verticalAlign=middle;resizable=0;points=[];fontSize=11;" vertex="1" connectable="0" parent="z7q-0Ynauut_bhvzLPcm-42">
          <mxGeometry x="-0.2659" y="-2" relative="1" as="geometry">
            <mxPoint as="offset" />
          </mxGeometry>
        </mxCell>
        <mxCell id="z7q-0Ynauut_bhvzLPcm-22" value="Admin Server" style="sketch=0;html=1;aspect=fixed;strokeColor=none;shadow=0;fillColor=#3B8DF1;verticalAlign=top;labelPosition=center;verticalLabelPosition=bottom;shape=mxgraph.gcp2.admin_connected;fontSize=11;" vertex="1" parent="1">
          <mxGeometry x="175" y="790" width="100" height="100" as="geometry" />
        </mxCell>
        <mxCell id="z7q-0Ynauut_bhvzLPcm-65" value="" style="edgeStyle=orthogonalEdgeStyle;rounded=0;orthogonalLoop=1;jettySize=auto;html=1;fontSize=11;" edge="1" parent="1" source="z7q-0Ynauut_bhvzLPcm-23" target="z7q-0Ynauut_bhvzLPcm-24">
          <mxGeometry relative="1" as="geometry" />
        </mxCell>
        <mxCell id="z7q-0Ynauut_bhvzLPcm-74" value="Push Logs" style="edgeLabel;html=1;align=center;verticalAlign=middle;resizable=0;points=[];fontSize=11;" vertex="1" connectable="0" parent="z7q-0Ynauut_bhvzLPcm-65">
          <mxGeometry x="0.0071" y="-1" relative="1" as="geometry">
            <mxPoint as="offset" />
          </mxGeometry>
        </mxCell>
        <mxCell id="z7q-0Ynauut_bhvzLPcm-23" value="Promtail&amp;nbsp;Server" style="sketch=0;pointerEvents=1;shadow=0;dashed=0;html=1;strokeColor=none;labelPosition=center;verticalLabelPosition=bottom;verticalAlign=top;align=center;fillColor=#505050;shape=mxgraph.mscae.oms.track_changes;fontSize=11;" vertex="1" parent="1">
          <mxGeometry x="145" y="550" width="42" height="50" as="geometry" />
        </mxCell>
        <mxCell id="z7q-0Ynauut_bhvzLPcm-24" value="Loki Server" style="html=1;whiteSpace=wrap;strokeColor=none;fillColor=#0079D6;labelPosition=center;verticalLabelPosition=middle;verticalAlign=top;align=center;fontSize=11;outlineConnect=0;spacingTop=-6;fontColor=#FFFFFF;sketch=0;shape=mxgraph.sitemap.log;" vertex="1" parent="1">
          <mxGeometry x="106" y="390" width="120" height="70" as="geometry" />
        </mxCell>
        <mxCell id="z7q-0Ynauut_bhvzLPcm-25" value="Prometheus Server" style="image;sketch=0;aspect=fixed;html=1;points=[];align=center;fontSize=11;image=img/lib/mscae/Chart.svg;" vertex="1" parent="1">
          <mxGeometry x="300" y="229.6" width="50" height="48" as="geometry" />
        </mxCell>
        <mxCell id="z7q-0Ynauut_bhvzLPcm-75" style="edgeStyle=orthogonalEdgeStyle;rounded=0;orthogonalLoop=1;jettySize=auto;html=1;fontSize=11;" edge="1" parent="1" source="z7q-0Ynauut_bhvzLPcm-26" target="z7q-0Ynauut_bhvzLPcm-24">
          <mxGeometry relative="1" as="geometry" />
        </mxCell>
        <mxCell id="z7q-0Ynauut_bhvzLPcm-76" value="Query" style="edgeLabel;html=1;align=center;verticalAlign=middle;resizable=0;points=[];fontSize=11;" vertex="1" connectable="0" parent="z7q-0Ynauut_bhvzLPcm-75">
          <mxGeometry x="0.1571" relative="1" as="geometry">
            <mxPoint as="offset" />
          </mxGeometry>
        </mxCell>
        <mxCell id="z7q-0Ynauut_bhvzLPcm-77" style="edgeStyle=orthogonalEdgeStyle;rounded=0;orthogonalLoop=1;jettySize=auto;html=1;fontSize=11;" edge="1" parent="1" source="z7q-0Ynauut_bhvzLPcm-26" target="z7q-0Ynauut_bhvzLPcm-25">
          <mxGeometry relative="1" as="geometry" />
        </mxCell>
        <mxCell id="z7q-0Ynauut_bhvzLPcm-78" value="Query" style="edgeLabel;html=1;align=center;verticalAlign=middle;resizable=0;points=[];fontSize=11;" vertex="1" connectable="0" parent="z7q-0Ynauut_bhvzLPcm-77">
          <mxGeometry x="-0.1152" relative="1" as="geometry">
            <mxPoint as="offset" />
          </mxGeometry>
        </mxCell>
        <mxCell id="z7q-0Ynauut_bhvzLPcm-26" value="Grafana Server" style="image;aspect=fixed;html=1;points=[];align=center;fontSize=11;image=img/lib/azure2/other/Grafana.svg;" vertex="1" parent="1">
          <mxGeometry x="132" y="227.2" width="68" height="52.800000000000004" as="geometry" />
        </mxCell>
        <mxCell id="z7q-0Ynauut_bhvzLPcm-62" value="" style="edgeStyle=none;curved=1;rounded=0;orthogonalLoop=1;jettySize=auto;html=1;fontSize=11;startSize=8;endSize=8;" edge="1" parent="1" source="z7q-0Ynauut_bhvzLPcm-27" target="z7q-0Ynauut_bhvzLPcm-58">
          <mxGeometry relative="1" as="geometry" />
        </mxCell>
        <mxCell id="z7q-0Ynauut_bhvzLPcm-63" value="Versioned YAML configuration files" style="edgeLabel;html=1;align=center;verticalAlign=middle;resizable=0;points=[];fontSize=11;" vertex="1" connectable="0" parent="z7q-0Ynauut_bhvzLPcm-62">
          <mxGeometry x="0.2193" y="-3" relative="1" as="geometry">
            <mxPoint as="offset" />
          </mxGeometry>
        </mxCell>
        <mxCell id="z7q-0Ynauut_bhvzLPcm-27" value="Config Server" style="image;sketch=0;aspect=fixed;html=1;points=[];align=right;fontSize=11;image=img/lib/mscae/App_Configuration.svg;labelPosition=left;verticalLabelPosition=middle;verticalAlign=middle;" vertex="1" parent="1">
          <mxGeometry x="740" y="770" width="50" height="49" as="geometry" />
        </mxCell>
        <mxCell id="z7q-0Ynauut_bhvzLPcm-37" value="" style="group;strokeColor=none;strokeWidth=1;perimeterSpacing=0;dashed=1;fillColor=none;rounded=0;glass=0;shadow=0;labelBorderColor=none;fontSize=11;" vertex="1" connectable="0" parent="1">
          <mxGeometry x="370" y="490" width="330" height="239" as="geometry" />
        </mxCell>
        <mxCell id="z7q-0Ynauut_bhvzLPcm-39" value="" style="whiteSpace=wrap;html=1;fontSize=11;" vertex="1" parent="z7q-0Ynauut_bhvzLPcm-37">
          <mxGeometry x="-70" y="-20" width="370" height="210" as="geometry" />
        </mxCell>
        <mxCell id="z7q-0Ynauut_bhvzLPcm-4" value="" style="image;sketch=0;aspect=fixed;html=1;points=[];align=center;fontSize=11;image=img/lib/mscae/Database_General.svg;" vertex="1" parent="z7q-0Ynauut_bhvzLPcm-37">
          <mxGeometry x="108" y="130" width="38" height="50" as="geometry" />
        </mxCell>
        <mxCell id="z7q-0Ynauut_bhvzLPcm-5" value="" style="image;sketch=0;aspect=fixed;html=1;points=[];align=center;fontSize=11;image=img/lib/mscae/Database_General.svg;" vertex="1" parent="z7q-0Ynauut_bhvzLPcm-37">
          <mxGeometry x="42" y="130" width="38" height="50" as="geometry" />
        </mxCell>
        <mxCell id="z7q-0Ynauut_bhvzLPcm-6" value="" style="image;sketch=0;aspect=fixed;html=1;points=[];align=center;fontSize=11;image=img/lib/mscae/Database_General.svg;" vertex="1" parent="z7q-0Ynauut_bhvzLPcm-37">
          <mxGeometry x="172" y="130" width="38" height="50" as="geometry" />
        </mxCell>
        <mxCell id="z7q-0Ynauut_bhvzLPcm-7" value="Visits-Service" style="image;sketch=0;aspect=fixed;html=1;points=[];align=left;fontSize=11;image=img/lib/mscae/Cloud_Service.svg;labelPosition=right;verticalLabelPosition=middle;verticalAlign=middle;" vertex="1" parent="z7q-0Ynauut_bhvzLPcm-37">
          <mxGeometry x="166" width="50" height="42" as="geometry" />
        </mxCell>
        <mxCell id="z7q-0Ynauut_bhvzLPcm-12" value="" style="edgeStyle=orthogonalEdgeStyle;rounded=0;orthogonalLoop=1;jettySize=auto;html=1;fontSize=11;" edge="1" parent="z7q-0Ynauut_bhvzLPcm-37" source="z7q-0Ynauut_bhvzLPcm-6" target="z7q-0Ynauut_bhvzLPcm-7">
          <mxGeometry relative="1" as="geometry" />
        </mxCell>
        <mxCell id="z7q-0Ynauut_bhvzLPcm-8" value="Vets-Service" style="image;sketch=0;aspect=fixed;html=1;points=[];align=center;fontSize=11;image=img/lib/mscae/Cloud_Service.svg;labelPosition=center;verticalLabelPosition=top;verticalAlign=bottom;" vertex="1" parent="z7q-0Ynauut_bhvzLPcm-37">
          <mxGeometry x="102" width="50" height="42" as="geometry" />
        </mxCell>
        <mxCell id="z7q-0Ynauut_bhvzLPcm-13" value="" style="edgeStyle=orthogonalEdgeStyle;rounded=0;orthogonalLoop=1;jettySize=auto;html=1;fontSize=11;" edge="1" parent="z7q-0Ynauut_bhvzLPcm-37" source="z7q-0Ynauut_bhvzLPcm-4" target="z7q-0Ynauut_bhvzLPcm-8">
          <mxGeometry relative="1" as="geometry" />
        </mxCell>
        <mxCell id="z7q-0Ynauut_bhvzLPcm-9" value="Customer-Service" style="image;sketch=0;aspect=fixed;html=1;points=[];align=right;fontSize=11;image=img/lib/mscae/Cloud_Service.svg;labelPosition=left;verticalLabelPosition=middle;verticalAlign=middle;" vertex="1" parent="z7q-0Ynauut_bhvzLPcm-37">
          <mxGeometry x="36" width="50" height="42" as="geometry" />
        </mxCell>
        <mxCell id="z7q-0Ynauut_bhvzLPcm-14" value="" style="edgeStyle=orthogonalEdgeStyle;rounded=0;orthogonalLoop=1;jettySize=auto;html=1;fontSize=11;" edge="1" parent="z7q-0Ynauut_bhvzLPcm-37" source="z7q-0Ynauut_bhvzLPcm-5" target="z7q-0Ynauut_bhvzLPcm-9">
          <mxGeometry relative="1" as="geometry" />
        </mxCell>
        <mxCell id="z7q-0Ynauut_bhvzLPcm-40" style="edgeStyle=orthogonalEdgeStyle;rounded=0;orthogonalLoop=1;jettySize=auto;html=1;entryX=1;entryY=0.5;entryDx=0;entryDy=0;exitX=0.25;exitY=1;exitDx=0;exitDy=0;fontSize=11;" edge="1" parent="1" source="z7q-0Ynauut_bhvzLPcm-39" target="z7q-0Ynauut_bhvzLPcm-19">
          <mxGeometry relative="1" as="geometry" />
        </mxCell>
        <mxCell id="z7q-0Ynauut_bhvzLPcm-41" value="Distributed Logs" style="edgeLabel;html=1;align=center;verticalAlign=middle;resizable=0;points=[];fontSize=11;" vertex="1" connectable="0" parent="z7q-0Ynauut_bhvzLPcm-40">
          <mxGeometry x="0.1435" y="-3" relative="1" as="geometry">
            <mxPoint as="offset" />
          </mxGeometry>
        </mxCell>
        <mxCell id="z7q-0Ynauut_bhvzLPcm-44" style="edgeStyle=orthogonalEdgeStyle;rounded=0;orthogonalLoop=1;jettySize=auto;html=1;exitX=0.75;exitY=0;exitDx=0;exitDy=0;fontSize=11;" edge="1" parent="1" source="z7q-0Ynauut_bhvzLPcm-39" target="z7q-0Ynauut_bhvzLPcm-21">
          <mxGeometry relative="1" as="geometry" />
        </mxCell>
        <mxCell id="z7q-0Ynauut_bhvzLPcm-49" value="Regiser" style="edgeLabel;html=1;align=center;verticalAlign=middle;resizable=0;points=[];fontSize=11;" vertex="1" connectable="0" parent="z7q-0Ynauut_bhvzLPcm-44">
          <mxGeometry x="-0.2785" y="-1" relative="1" as="geometry">
            <mxPoint x="30" y="-3" as="offset" />
          </mxGeometry>
        </mxCell>
        <mxCell id="z7q-0Ynauut_bhvzLPcm-51" value="" style="edgeStyle=orthogonalEdgeStyle;rounded=0;orthogonalLoop=1;jettySize=auto;html=1;exitX=0.75;exitY=1;exitDx=0;exitDy=0;fontSize=11;" edge="1" parent="1" source="z7q-0Ynauut_bhvzLPcm-39" target="z7q-0Ynauut_bhvzLPcm-27">
          <mxGeometry relative="1" as="geometry" />
        </mxCell>
        <mxCell id="z7q-0Ynauut_bhvzLPcm-54" value="Fetch Configuration" style="edgeLabel;html=1;align=center;verticalAlign=middle;resizable=0;points=[];fontSize=11;" vertex="1" connectable="0" parent="z7q-0Ynauut_bhvzLPcm-51">
          <mxGeometry x="-0.2003" relative="1" as="geometry">
            <mxPoint as="offset" />
          </mxGeometry>
        </mxCell>
        <mxCell id="z7q-0Ynauut_bhvzLPcm-58" value="" style="sketch=0;outlineConnect=0;dashed=0;verticalLabelPosition=bottom;verticalAlign=top;align=center;html=1;fontSize=11;fontStyle=0;aspect=fixed;pointerEvents=1;shape=mxgraph.aws4.git_repository;fillStyle=auto;fillColor=#000000;fontColor=strokeColor;" vertex="1" parent="1">
          <mxGeometry x="731.15" y="920" width="67.69" height="88" as="geometry" />
        </mxCell>
        <mxCell id="z7q-0Ynauut_bhvzLPcm-64" value="" style="edgeStyle=orthogonalEdgeStyle;rounded=0;orthogonalLoop=1;jettySize=auto;html=1;fontSize=11;" edge="1" parent="1" source="z7q-0Ynauut_bhvzLPcm-39" target="z7q-0Ynauut_bhvzLPcm-23">
          <mxGeometry relative="1" as="geometry" />
        </mxCell>
        <mxCell id="z7q-0Ynauut_bhvzLPcm-73" value="Logs" style="edgeLabel;html=1;align=center;verticalAlign=middle;resizable=0;points=[];fontSize=11;" vertex="1" connectable="0" parent="z7q-0Ynauut_bhvzLPcm-64">
          <mxGeometry x="0.0512" y="1" relative="1" as="geometry">
            <mxPoint as="offset" />
          </mxGeometry>
        </mxCell>
        <mxCell id="z7q-0Ynauut_bhvzLPcm-69" style="edgeStyle=orthogonalEdgeStyle;rounded=0;orthogonalLoop=1;jettySize=auto;html=1;exitX=0.25;exitY=0;exitDx=0;exitDy=0;fontSize=11;" edge="1" parent="1" source="z7q-0Ynauut_bhvzLPcm-39" target="z7q-0Ynauut_bhvzLPcm-25">
          <mxGeometry relative="1" as="geometry" />
        </mxCell>
        <mxCell id="z7q-0Ynauut_bhvzLPcm-72" value="Metrics" style="edgeLabel;html=1;align=center;verticalAlign=middle;resizable=0;points=[];fontSize=11;" vertex="1" connectable="0" parent="z7q-0Ynauut_bhvzLPcm-69">
          <mxGeometry x="0.0652" y="1" relative="1" as="geometry">
            <mxPoint as="offset" />
          </mxGeometry>
        </mxCell>
        <mxCell id="z7q-0Ynauut_bhvzLPcm-83" value="" style="edgeStyle=orthogonalEdgeStyle;rounded=0;orthogonalLoop=1;jettySize=auto;html=1;" edge="1" parent="1" source="z7q-0Ynauut_bhvzLPcm-81" target="z7q-0Ynauut_bhvzLPcm-18">
          <mxGeometry relative="1" as="geometry">
            <mxPoint x="668.8400000000001" y="93" as="targetPoint" />
          </mxGeometry>
        </mxCell>
        <mxCell id="z7q-0Ynauut_bhvzLPcm-84" value="Execute" style="edgeLabel;html=1;align=center;verticalAlign=middle;resizable=0;points=[];" vertex="1" connectable="0" parent="z7q-0Ynauut_bhvzLPcm-83">
          <mxGeometry x="-0.1305" y="-1" relative="1" as="geometry">
            <mxPoint as="offset" />
          </mxGeometry>
        </mxCell>
        <mxCell id="z7q-0Ynauut_bhvzLPcm-85" style="edgeStyle=orthogonalEdgeStyle;rounded=0;orthogonalLoop=1;jettySize=auto;html=1;entryX=1;entryY=0.25;entryDx=0;entryDy=0;" edge="1" parent="1" source="z7q-0Ynauut_bhvzLPcm-81" target="z7q-0Ynauut_bhvzLPcm-39">
          <mxGeometry relative="1" as="geometry">
            <Array as="points">
              <mxPoint x="810" y="93" />
              <mxPoint x="810" y="522" />
            </Array>
          </mxGeometry>
        </mxCell>
        <mxCell id="z7q-0Ynauut_bhvzLPcm-86" value="Execute" style="edgeLabel;html=1;align=center;verticalAlign=middle;resizable=0;points=[];" vertex="1" connectable="0" parent="z7q-0Ynauut_bhvzLPcm-85">
          <mxGeometry x="-0.401" y="-1" relative="1" as="geometry">
            <mxPoint as="offset" />
          </mxGeometry>
        </mxCell>
        <mxCell id="z7q-0Ynauut_bhvzLPcm-81" value="Testing Service" style="image;sketch=0;aspect=fixed;html=1;points=[];align=center;fontSize=12;image=img/lib/mscae/Cloud_Service.svg;labelPosition=center;verticalLabelPosition=top;verticalAlign=bottom;" vertex="1" parent="1">
          <mxGeometry x="748.84" y="72" width="50" height="42" as="geometry" />
        </mxCell>
      </root>
    </mxGraphModel>
  </diagram>
</mxfile>
